Patient4_TMGait_0pt7_01_right_35_EMG.mot
version=1
nRows=34
nColumns=33
inDegrees=no
endheader
time	1LAddLong	2LGlutMax	3LGlutMed	4LIliopsoas	5LSemiMemb	6LBicFemLong	7LRecFem	8LVastMed	9LVastLat	10LGasMed	11LTibAnt	12lTibPost	13LPeroneusLong	14LSol	15LExtDigLong	16LFlexDigLong	17RAddLong	18RGlutMax	19RGlutMed	20RIliopsoas	21RSemiMemb	22RBicFemLong	23RRecFem	24RVastMed	25RVastLat	26RGasMed	27RTibAnt	28RTibPost	29RPeroneusLong	30RSol	31RExtDigLong	32RFlexDigLong
40.257	0.006866	0.10757	-0.12299	0.015869	0.004272	0.093079	-0.1268	0.011749	-0.06012	0.24246	-0.010834	-0.046844	-0.018005	-0.005646	-0.053711	-0.020294	0.024261	-0.03418	0.82886	0.1181	0.15747	-0.25253	-0.27863	-0.34927	-0.22705	0.12787	-0.12436	-0.025024	-0.85541	0.046082	-0.001678	-0.00473
40.258	-0.002594	0.10391	-0.15411	0.005493	-0.003052	0.07019	-0.2562	0.017853	-0.086365	0.091858	-0.008545	-0.27649	0.037537	0.091095	0.027161	0.012054	0.033875	0.021973	0.52673	-0.11093	0.067596	-0.035248	-0.41077	-0.11627	-0.28686	0.092926	-0.14435	0.055695	0.15793	-0.36636	-0.002136	-0.009308
40.259	-0.010834	0.077057	-0.13336	0.00946	0.001678	0.06134	-0.34866	0.018463	-0.061035	-0.39871	-0.015259	-0.46875	-0.070801	0.050354	0.004578	0.042114	0.019379	0.059967	0.46097	-0.11078	0.036621	-0.1239	-0.271	-0.018768	-0.053253	0.095215	-0.031586	0.037537	0.38467	-0.17502	-0.000458	-0.00473
40.26	-0.003967	0.06546	-0.12436	0.004883	-0.005798	0.057831	-0.55847	0.018616	-0.06546	-0.50888	-0.042572	-0.39169	-0.15976	0.015564	0.041504	0.056305	0.057068	0.033417	-0.11505	0.079041	0.023346	-0.70084	0.065918	0.028687	0.065918	0.088348	-0.046234	-0.018463	0.58121	-0.21408	-0.003967	-0.001831
40.261	-0.00351	-0.009155	-0.12314	-0.007019	-0.007019	0.051117	-0.57297	0.020294	-0.072021	-0.46768	-0.018616	-0.1622	-0.39459	-0.03418	0.058136	0.11124	0.10666	-0.01236	-0.059967	0.11368	-0.4483	-0.9906	-0.089722	0.052032	0.12711	0.0737	0.093994	-0.018158	0.96344	-0.15243	-0.001526	-0.00473
40.262	-0.003357	-0.04364	-0.14435	-0.010071	-0.002747	0.018768	-0.34531	0.014343	-0.06012	-0.098267	0.007019	-0.26871	-0.52429	-0.046692	0.044708	0.092316	0.15442	-0.002136	0.10773	0.006256	-0.70969	-0.96024	-0.224	-0.011902	0.12192	0.066376	0.42847	-0.010834	0.20828	0.081482	-0.003052	-0.005646
40.263	0.000305	-0.13306	-0.15778	-0.003662	-0.003967	0.00473	-0.1297	0.000763	-0.03891	0.072632	-0.028839	-0.25726	-0.11353	0.10651	0.033112	-0.001831	0.16235	0.019684	0.053864	-0.075226	-0.80719	-0.91476	-0.22461	0.070648	0.042267	0.048218	0.53848	-0.012817	-0.51575	0.055847	-0.000458	-0.001831
40.264	0.005493	-0.17471	-0.091858	-0.00061	-0.008698	0.00412	0.1236	0.012054	-0.018921	0.074768	0.004272	0.10895	-0.016327	0.1796	0.02243	-0.028687	0.036011	0.12375	0.54169	-0.094604	-0.45471	-0.59906	-0.12146	0.59235	-0.15182	0.036621	0.46768	-0.014191	-1.0527	0.007477	0.004272	-0.013123
40.265	0.014801	-0.23758	-0.094452	-0.003357	-0.005798	0.007172	0.233	0.009003	-0.003357	0.10132	-0.039978	0.13412	-0.005035	0.023346	-0.063629	-0.001221	-0.16373	0.098572	0.59479	-0.081177	-0.20126	0.33554	-0.093689	1.6081	-0.40848	0.009766	0.26733	-0.013885	-1.0814	0.1767	-0.004272	-0.018311
40.266	0.011139	-0.26749	-0.067139	0.008698	0.007629	-0.019073	0.29602	-0.010529	0.003204	0.16617	-0.003052	0.14908	0.009766	-0.05127	-0.12375	0.066071	-0.23621	-0.12497	0.3096	-0.032349	0.13229	0.92453	0.21072	1.5028	-0.50018	-0.002899	0.24918	-0.009308	0.044708	0.047302	-0.001526	-0.019379
40.267	0.006104	-0.30411	-0.050812	0.000305	0.008698	-0.008087	0.37888	0.002747	-0.011902	0.28992	0.14389	0.15289	-0.1445	-0.063934	-0.072937	0.066681	-0.20294	-0.20798	0.32013	-0.006256	0.69839	0.66269	0.30456	0.78796	-0.24658	-0.006714	0.098114	-0.006409	0.099182	-0.12131	-0.004425	-0.024872
40.268	0.000305	-0.34775	-0.04837	-0.008392	0.016785	-0.021667	0.34088	0.017853	-0.024567	0.23972	0.16434	0.15595	-0.16968	0.076294	0.032654	0.041962	-0.16083	-0.069885	0.65796	-0.007477	0.66879	0.48889	0.29251	0.21973	0.04303	-0.059967	0.12054	-0.011139	-1.4388	-0.10895	-0.004578	-0.018463
40.269	-0.012207	-0.31418	-0.048065	0.010529	0.010834	-0.009613	0.3096	0.028076	-0.01709	-0.030975	0.29205	0.17975	-0.070648	-0.080261	0.32761	0.036316	-0.13306	0.057373	0.57098	0.068665	0.29159	0.62882	0.29678	-0.010834	-0.088348	-0.090027	0.003357	-0.022888	-0.32272	0.14893	-0.006714	-0.016174
40.27	-0.024567	-0.24414	-0.019684	0.022278	0.012512	-0.000305	0.2385	0.022278	-0.010986	-0.20462	0.097504	0.19806	0.024109	-0.078735	0.44937	0.059509	-0.12817	0.23514	0.72418	0.11795	0.11063	0.61798	0.17441	-0.37735	-0.35385	-0.075684	0.066376	-0.027313	-0.60501	0.19424	-0.002899	-0.017853
40.271	-0.037842	-0.24017	-0.028992	0.013123	0.006409	0.02533	0.17487	0.023346	-0.011444	-0.24551	-0.092926	0.2034	0.004425	0.042877	0.28214	0.067749	-0.089569	0.26871	1.059	0.10346	0.044098	0.33402	0.18127	-0.46951	-0.65491	-0.15106	0.13702	-0.13763	-0.42938	0.27374	-0.003662	-0.031128
40.272	-0.044098	-0.23804	-0.027618	0.005035	0.003967	0.045013	0.072632	0.020905	-0.016479	-0.006409	-0.19791	0.21164	0.038757	0.098572	0.39124	0.039673	-0.056	0.14923	0.69275	-0.051727	0.0177	0.014954	0.16235	-0.26886	-0.81436	-0.35751	0.006104	-0.11246	1.4087	0.53802	0.001373	-0.021667
40.273	-0.028992	-0.21316	-0.006714	-0.014343	-0.002289	0.057526	0.003052	0.023346	-0.027008	-0.050201	-0.39627	0.20248	0.05127	-0.027771	0.345	0.03006	-0.068054	0.007324	0.098114	-0.097351	0.052032	0.026398	-0.00351	-0.11948	-0.69611	-0.1294	-0.3569	-0.083923	3.5046	-0.07309	-0.00473	-0.018005
40.274	-0.030365	-0.20264	0.031433	0.007629	0.003357	0.059357	-0.023956	0.020142	-0.011597	0.29984	-0.13245	0.17349	0.058441	-0.12497	-0.049744	0.022736	-0.0383	-0.033722	-0.10178	-0.068665	0.058746	-0.35629	0.16907	-0.072479	-0.16708	0.11063	-0.28214	0.23697	0.99991	-0.15488	-0.004883	-0.023651
40.275	-0.021362	-0.13199	0.006561	0.065613	-0.00061	0.045471	-0.070038	0.017242	-0.015564	0.52307	0.022736	0.15823	-0.033875	-0.001678	-0.19226	0.018158	-0.007019	-0.20172	-0.83115	0.055389	0.009613	-0.83649	0.5423	0.062103	0.39993	0.12848	0.12665	0.055084	-0.86014	0.34073	-0.002594	-0.025482
40.276	-0.023499	-0.083313	-0.046692	0.093536	0.001221	0.054779	-0.16296	0.014343	0.012512	0.31754	0.042877	0.15167	-0.079803	-0.001221	-0.38925	0.012512	0.048218	-0.42374	-1.2239	0.21545	-0.063324	-1.1391	0.72128	-0.040741	0.37979	0.079956	0.19226	0.07309	-0.73364	0.61279	-0.002899	-0.034332
40.277	-0.018311	0.018616	-0.027008	0.040283	0.009308	0.0354	-0.029449	0.011902	0.017853	0.20386	0.042114	0.14313	-0.072937	-0.074463	-0.76401	0.002594	0.057983	-0.40543	-0.43762	0.28671	-0.053864	-1.2337	0.8696	-0.30853	0.21759	0.074921	0.15823	0.028839	0.42374	0.2449	-0.00473	-0.026398
40.278	-0.008698	0.1442	-0.015106	-0.016174	0.005493	0.028076	0.098877	0.008087	0.034027	-0.04837	-0.1001	0.11963	-0.062408	-0.14648	-0.71915	-0.009003	0.0383	-0.66986	-0.53177	0.23346	-0.059967	-0.81207	0.82108	-0.33341	0.1474	0.069275	0.03067	-0.010681	-0.42252	-0.069275	-0.003815	-0.023804
40.279	-0.014038	0.24582	0.006409	-0.026093	0.005798	0.004883	0.15869	0.009918	0.049591	-0.21133	-0.10635	0.10162	-0.027466	-0.12634	-0.52506	0.003662	0.029602	-0.96298	-1.2875	0.11017	-0.069885	-0.44907	0.61295	-0.24902	0.27985	0.093079	-0.17242	-0.092926	-0.74341	-0.11337	-0.000916	-0.011902
40.28	-0.005646	0.41336	-0.004272	-0.006409	0.008392	-0.020447	0.30319	0.00885	0.051727	-0.31723	-0.029602	0.11154	-0.090179	-0.084229	0.005493	-0.006866	0.020752	-1.1536	-1.1061	-0.035858	-0.085449	-0.036316	0.65048	-0.3093	0.22217	0.09079	-0.17136	0.011292	-1.2582	-0.047607	-0.00885	-0.012207
40.281	-0.001221	0.60364	0.010376	0.004578	0.009003	-0.032654	0.40237	-0.004883	0.029907	-0.18829	0.074768	0.103	-0.11795	0.08606	0.71487	0.006714	0.015717	-1.3338	-0.43869	-0.052338	-0.086975	0.26627	0.68207	-0.33859	0.34759	0.090637	-0.25925	0.14557	1.1629	-0.056763	-0.001373	-0.014191
40.282	-0.002289	0.74829	-0.002441	0.011292	0.015106	-0.063171	0.41748	-0.000305	0.02243	-0.0914	0.11261	0.077209	-0.095825	0.13779	0.04837	0.011749	0.009918	-1.3774	-0.43411	-0.052032	-0.083008	0.35523	0.56747	-0.031891	0.62408	0.074615	-0.33524	0.00473	0.33005	-0.25925	-0.003662	-0.014343
40.283	-0.001526	0.86151	-0.010223	0.011444	0.014191	-0.060425	0.48553	0.00824	0.011902	-0.006256	-0.005341	0.066528	-0.046844	0.15808	0.024109	0.013885	0.006561	-1.3849	-1.3295	0.000153	-0.092468	0.045166	0.47531	0.42877	0.61295	0.067444	-0.19226	-0.061951	-1.6086	-0.42297	-0.002289	-0.010223
40.284	-0.005798	0.95276	0.014648	-0.007324	0.011902	-0.062408	0.55878	0.01297	0.007782	0.025024	-0.18509	0.050659	-0.002594	0.12253	0.3714	0.010223	0.035706	-1.3325	-1.8063	-0.004425	-0.098267	-0.33676	0.43488	0.1683	0.45914	0.042877	-0.001984	-0.044098	0.5661	-0.33722	0.010071	-0.006866
40.285	-0.00946	1.0565	0.00885	-0.018921	0.021667	-0.063019	0.57846	0.007629	0.010834	0.014954	-0.17425	0.052032	-0.057831	0.054321	-0.22247	0.009155	0.029907	-1.1459	-1.7506	0.03006	-0.005341	-0.18646	0.30121	-0.12528	0.34149	0.021973	-0.10681	-0.034943	1.4896	-0.097656	-0.000305	-0.0177
40.286	-0.006866	1.1096	-0.024872	0.002441	0.020142	-0.058594	0.62347	0.009918	0.00824	-0.031433	0.10483	0.055084	-0.13519	0.10712	-0.33234	0	0.015411	-0.99625	-1.405	0.045929	-0.053101	0.10193	-0.034332	-0.40298	-0.032806	0.001678	0.039215	-0.023041	1.1295	-0.24582	-0.001984	-0.016479
40.287	-0.013428	1.1507	-0.024261	-0.000763	0.020599	-0.05127	0.62637	0.006256	-0.022888	-0.10712	0.040283	0.037537	-0.09964	0.17059	-0.11719	-0.009766	-0.00061	-0.74982	-0.7016	0.003967	-0.11719	-0.15839	-0.19348	-0.35461	-0.63568	-0.012817	-0.47043	-0.023041	0.58121	-0.40787	0	-0.016632
40.288	-0.007019	1.2019	-0.036926	0.000458	0.014038	-0.061951	0.61233	0.007629	-0.01358	-0.076141	0.018463	0.030518	-0.11154	0.21439	0.29831	-0.005798	-0.005798	-0.49896	-0.69626	-0.000458	-0.13229	-0.28397	-0.36926	-0.16907	-1.1209	-0.026398	-0.20691	-0.016174	-1.1375	-0.27878	-0.00351	-0.01236
40.289	-0.012207	1.2315	-0.053864	0.002594	0.026398	-0.03952	0.52322	-0.007477	-0.009155	0.12909	0.000916	0.011444	-0.12283	0.16754	-0.027313	0.011749	0.023651	-0.29083	-0.2066	0.020752	-0.029907	-0.043945	-0.18402	0.056458	-0.54657	0.019226	0.039368	-0.025024	-1.0539	-0.3183	-0.003204	-0.016632
40.29	-0.015106	1.2224	-0.067749	0	0.032043	-0.022278	0.50659	-0.011902	-0.007172	0.083466	-0.22034	0.004578	0.025177	0.11383	-0.21881	0.007324	0.040894	-0.23331	-0.39444	0.048981	-0.11322	-0.18707	0.32532	0.3421	-0.020294	0.048828	0.1297	-0.03067	1.5463	-0.1683	-0.006561	-0.020447
